<?xml version="1.0" standalone="no"?>
<!DOCTYPE svg PUBLIC "-//W3C//DTD SVG 20010904//EN"
 "http://www.w3.org/TR/2001/REC-SVG-20010904/DTD/svg10.dtd">
<svg version="1.0" xmlns="http://www.w3.org/2000/svg"
 width="300.000000pt" height="200.000000pt" viewBox="0 0 920.000000 647.000000"
 preserveAspectRatio="xMidYMid meet">

<g transform="translate(0.000000,647.000000) scale(0.100000,-0.100000)"
fill="#000000" stroke="none">
<path d="M4741 6196 c-8 -9 -29 -16 -50 -16 -28 0 -38 -5 -46 -22 -6 -13 -19
-24 -30 -26 -12 -2 -26 -15 -32 -32 -8 -22 -15 -28 -32 -23 -17 4 -21 1 -21
-16 0 -13 -10 -26 -25 -33 -19 -8 -25 -19 -25 -42 0 -17 -7 -40 -15 -50 -13
-17 -13 -22 1 -37 14 -16 14 -20 0 -47 -14 -26 -14 -31 -1 -42 8 -7 15 -27 15
-45 0 -24 7 -37 26 -50 22 -14 25 -22 21 -50 -4 -25 -1 -38 15 -51 14 -13 18
-26 14 -45 -4 -21 0 -29 20 -37 16 -8 24 -20 24 -36 0 -16 8 -27 28 -35 34
-15 108 -104 145 -175 24 -44 29 -66 28 -120 0 -63 1 -66 27 -73 15 -5 65 -8
112 -8 75 0 91 3 132 28 26 15 50 32 53 37 3 5 -7 26 -22 47 -25 33 -28 44
-28 112 1 82 24 158 71 227 21 30 24 42 16 60 -8 16 -7 27 5 44 12 17 13 27 4
46 -8 17 -8 31 1 49 8 18 8 28 -1 39 -10 11 -10 20 -1 37 9 16 9 27 0 44 -9
17 -9 28 0 45 9 18 9 25 -5 40 -13 14 -14 23 -6 39 15 27 15 27 -18 41 -17 7
-34 24 -39 39 -6 16 -22 33 -40 40 -19 8 -35 24 -41 42 -8 22 -16 29 -37 29
-15 0 -35 7 -44 15 -14 13 -79 20 -130 15 -8 -1 -24 1 -36 5 -13 4 -25 1 -33
-9z m45 -53 c16 -91 20 -107 33 -111 10 -3 12 2 8 19 -14 57 -19 129 -9 129
14 0 20 -19 28 -87 l6 -58 87 -42 c47 -22 114 -62 149 -87 l63 -47 -18 -30
c-10 -17 -23 -33 -29 -36 -6 -2 -40 16 -75 40 -96 67 -150 92 -160 75 -5 -7
-9 -18 -9 -24 0 -10 -69 -28 -77 -20 -2 2 -6 14 -8 26 -2 12 -6 24 -8 27 -8 7
-101 -73 -156 -132 -51 -56 -54 -58 -68 -40 -37 51 -32 64 64 156 50 47 109
95 132 105 36 17 41 22 37 45 -15 81 -18 129 -8 129 6 0 14 -17 18 -37z"/>
<path d="M4777 5995 c-63 -22 -227 -162 -227 -194 0 -33 11 -28 73 33 34 34
92 83 128 109 l67 47 56 -33 c32 -17 94 -55 139 -84 76 -48 96 -53 97 -21 0
11 -107 81 -175 115 -77 38 -111 44 -158 28z"/>
<path d="M4804 5925 c-9 -23 14 -45 26 -25 5 8 8 19 7 24 -6 17 -27 18 -33 1z"/>
<path d="M3594 5058 c1 -145 -15 -158 -29 -23 -10 96 -11 98 -18 51 -4 -27 -7
-82 -7 -122 0 -59 -3 -74 -15 -74 -12 0 -15 16 -15 80 0 44 -4 80 -9 80 -16 0
-20 -31 -23 -175 -3 -162 11 -213 65 -242 41 -21 122 -12 152 17 30 28 63 179
47 212 l-11 23 0 -23 c-1 -39 -30 -97 -42 -85 -7 7 -7 29 2 72 13 66 1 181
-24 243 -13 31 -14 27 -13 -57 1 -49 -3 -92 -9 -95 -11 -6 -21 44 -30 153 -4
42 -10 77 -15 77 -4 0 -7 -51 -6 -112z"/>
<path d="M5125 5130 c-37 -40 -104 -64 -184 -63 -42 0 -93 5 -114 11 -36 10
-39 9 -49 -14 -6 -13 -9 -27 -6 -30 3 -3 42 -11 85 -19 140 -25 255 7 309 84
11 16 11 21 -5 35 -16 15 -19 15 -36 -4z"/>
<path d="M5176 5085 c-18 -28 -111 -85 -138 -85 -18 0 -20 -23 -4 -48 4 -7 3
-19 -3 -26 -6 -7 -8 -15 -6 -18 10 -10 -45 -39 -58 -31 -7 4 -16 8 -22 8 -5 0
-10 7 -10 15 0 8 -4 18 -9 21 -5 4 -5 15 -1 25 15 36 13 44 -11 44 -14 0 -57
7 -95 16 -39 9 -73 13 -76 10 -4 -4 1 -30 10 -59 8 -28 21 -80 28 -114 10 -53
15 -63 39 -73 25 -10 38 -6 136 47 l109 58 47 89 c26 48 53 96 61 105 18 20
30 41 24 41 -3 0 -12 -11 -21 -25z"/>
<path d="M5216 5018 l-38 -63 55 54 c31 30 54 58 51 63 -12 19 -32 4 -68 -54z"/>
<path d="M5229 4971 c-48 -48 -91 -100 -97 -118 -6 -18 -9 -33 -6 -33 3 0 56
26 117 59 62 32 127 61 146 65 49 9 102 -9 138 -46 62 -64 69 -134 23 -214
-48 -85 -137 -139 -340 -209 -230 -79 -233 -81 -254 -131 -10 -26 -34 -66 -52
-90 -19 -24 -31 -50 -28 -58 10 -27 -16 -86 -45 -101 -25 -12 -31 -12 -59 5
-18 11 -33 28 -33 37 -1 10 -3 49 -5 86 -1 38 -5 71 -8 74 -9 9 -86 -28 -86
-42 0 -6 16 -38 36 -71 20 -32 47 -77 60 -100 29 -50 90 -232 99 -299 13 -89
18 -95 72 -95 81 0 227 21 250 36 31 19 73 94 103 185 30 88 103 210 203 337
37 48 74 101 82 119 23 49 65 275 72 384 8 125 -6 177 -61 234 -38 39 -47 43
-132 59 -51 9 -96 15 -100 15 -5 -1 -48 -40 -95 -88z"/>
<path d="M4956 4964 c-9 -8 -16 -19 -16 -24 0 -10 29 -40 38 -40 12 0 38 20
27 20 -5 0 -3 5 5 10 13 9 13 11 0 20 -8 5 -10 10 -5 10 11 0 -15 20 -27 20
-4 0 -14 -7 -22 -16z"/>
<path d="M4665 4950 c-9 -14 11 -70 36 -100 17 -21 19 -22 15 -5 -3 11 -10 41
-17 68 -11 46 -21 57 -34 37z"/>
<path d="M4610 4921 c-8 -5 -98 -19 -200 -31 -102 -12 -186 -23 -187 -23 0 -1
-4 -52 -8 -113 l-7 -111 133 -17 c74 -10 156 -21 184 -26 46 -7 55 -5 127 31
l78 39 0 54 c0 47 -4 59 -34 92 -19 21 -40 56 -47 76 -13 40 -16 42 -39 29z"/>
<path d="M5348 4905 c-21 -8 -68 -32 -105 -53 -68 -41 -115 -61 -231 -102
l-62 -22 34 -39 c38 -42 54 -85 63 -172 3 -32 9 -59 12 -62 10 -5 267 87 326
117 72 38 129 91 154 143 26 56 26 68 0 123 -37 75 -104 99 -191 67z"/>
<path d="M3808 4873 c-12 -3 -18 -14 -18 -31 0 -15 -8 -62 -19 -104 l-18 -77
146 -1 c80 0 155 -2 166 -3 19 -2 20 5 23 104 l3 106 -62 7 c-68 7 -194 6
-221 -1z m79 -135 c-3 -7 -5 -2 -5 12 0 14 2 19 5 13 2 -7 2 -19 0 -25z"/>
<path d="M4116 4839 c-3 -17 -6 -66 -6 -109 l0 -78 35 -4 c20 -2 38 -2 40 1 3
2 5 53 5 113 l0 108 -34 0 c-30 0 -34 -4 -40 -31z"/>
<path d="M5000 4813 c-115 -65 -181 -105 -178 -109 2 -2 54 17 115 42 92 38
112 50 116 70 5 29 4 29 -53 -3z"/>
<path d="M4793 4735 c0 -9 4 -14 9 -13 5 2 10 8 10 13 0 5 -5 11 -10 13 -5 1
-9 -4 -9 -13z"/>
<path d="M4867 4693 l-37 -15 29 -34 c27 -31 57 -107 76 -191 9 -43 17 -47 60
-29 40 17 42 27 24 121 -14 78 -42 131 -79 150 -16 8 -30 15 -32 14 -2 0 -20
-7 -41 -16z"/>
<path d="M4790 4650 c0 -5 -9 -10 -21 -10 -11 0 -57 -16 -101 -35 -125 -55
-193 -75 -256 -75 -48 0 -566 -110 -579 -123 -1 -2 6 -31 17 -64 l21 -60 230
-18 c249 -19 373 -16 465 10 75 22 152 55 166 72 6 7 23 13 37 13 33 0 121 28
139 44 29 27 -63 256 -103 256 -8 0 -15 -4 -15 -10z"/>
<path d="M3780 4396 c0 -16 44 -116 51 -116 12 0 11 5 -8 67 -9 29 -23 53 -30
53 -7 0 -13 -2 -13 -4z"/>
<path d="M3714 4384 c-14 -6 26 -114 43 -114 8 0 5 19 -9 60 -11 33 -21 60
-21 59 -1 0 -7 -3 -13 -5z"/>
<path d="M3640 4363 c0 -23 36 -103 46 -103 16 0 -17 102 -34 108 -7 2 -12 0
-12 -5z"/>
<path d="M4830 4346 c-26 -10 -36 -19 -38 -39 -3 -27 -1 -28 46 -27 4 0 18 18
31 40 25 44 20 47 -39 26z"/>
<path d="M3549 4321 c-68 -46 -354 -325 -345 -339 5 -8 56 14 164 70 126 65
169 93 220 142 l63 62 -18 47 c-9 26 -22 47 -28 47 -6 0 -31 -13 -56 -29z"/>
<path d="M5438 4173 c-69 -98 -148 -230 -148 -246 0 -8 55 1 93 15 15 6 27 17
27 26 0 22 68 219 92 265 36 71 12 48 -64 -60z"/>
<path d="M5370 3909 c-14 -4 -40 -7 -57 -8 -19 -1 -33 -6 -33 -13 0 -22 -50
-122 -73 -146 l-22 -24 25 7 c14 3 59 14 100 23 l75 17 7 75 c3 41 6 75 5 76
-1 0 -13 -3 -27 -7z"/>
<path d="M5390 3731 c0 -5 5 -13 10 -16 6 -3 10 -2 10 4 0 5 -4 13 -10 16 -5
3 -10 2 -10 -4z"/>
<path d="M5316 3722 c-2 -4 -1 -14 5 -22 7 -12 9 -10 9 8 0 23 -5 28 -14 14z"/>
<path d="M5227 3704 c-8 -8 3 -34 14 -34 5 0 9 9 9 20 0 19 -11 26 -23 14z"/>
<path d="M5132 3679 c2 -6 8 -10 13 -10 5 0 11 4 13 10 2 6 -4 11 -13 11 -9 0
-15 -5 -13 -11z"/>
<path d="M5050 3669 c0 -5 5 -7 10 -4 6 3 10 8 10 11 0 2 -4 4 -10 4 -5 0 -10
-5 -10 -11z"/>
<path d="M4960 3660 c0 -5 5 -10 10 -10 6 0 10 5 10 10 0 6 -4 10 -10 10 -5 0
-10 -4 -10 -10z"/>
<path d="M5282 3631 c4 -13 18 -16 19 -4 0 4 -5 9 -11 12 -7 2 -11 -2 -8 -8z"/>
<path d="M5192 3614 c1 -9 9 -19 16 -22 9 -3 13 2 10 14 -1 9 -9 19 -16 22 -9
3 -13 -2 -10 -14z"/>
<path d="M5091 3607 c-12 -15 -5 -27 16 -27 7 0 13 9 13 20 0 23 -13 26 -29 7z"/>
<path d="M4840 3600 c0 -15 31 -33 40 -24 5 5 -1 14 -16 21 -13 6 -24 8 -24 3z"/>
<path d="M5443 3594 c-38 -27 -160 -63 -274 -81 l-110 -17 53 -24 c91 -40 250
-152 334 -236 86 -86 130 -161 157 -266 8 -29 16 -49 19 -44 20 32 38 129 38
202 0 96 -18 177 -61 271 -33 73 -117 211 -127 210 -4 0 -17 -7 -29 -15z"/>
<path d="M4785 3530 c-18 -20 -18 -20 25 -20 24 0 41 1 39 3 -2 1 -13 10 -25
20 -20 16 -22 16 -39 -3z"/>
<path d="M4915 3530 c-18 -20 -17 -20 20 -20 37 0 38 0 20 20 -10 11 -19 20
-20 20 -1 0 -10 -9 -20 -20z"/>
<path d="M5016 3535 c-19 -14 -17 -15 18 -15 33 0 37 2 26 15 -15 18 -20 18
-44 0z"/>
<path d="M5145 3540 c-3 -5 -2 -10 4 -10 5 0 13 5 16 10 3 6 2 10 -4 10 -5 0
-13 -4 -16 -10z"/>
<path d="M4165 3519 c-102 -14 -211 -46 -277 -81 -119 -63 -313 -303 -472
-585 -32 -56 -75 -122 -97 -146 -44 -51 -48 -67 -19 -85 11 -7 20 -21 20 -31
0 -11 9 -22 19 -26 11 -3 23 -14 26 -24 3 -10 17 -23 30 -29 14 -6 25 -17 25
-23 0 -7 9 -21 20 -33 74 -76 88 -115 50 -138 -11 -7 -20 -17 -20 -23 0 -6
-20 -32 -45 -59 -25 -28 -47 -63 -51 -82 -3 -17 -19 -45 -35 -60 -33 -32 -38
-73 -11 -95 26 -21 60 -39 74 -39 7 0 30 -15 51 -33 30 -26 41 -46 57 -102 16
-56 29 -78 69 -120 40 -41 51 -61 61 -107 l13 -56 88 -37 c78 -33 92 -43 121
-86 26 -38 43 -51 82 -64 65 -22 89 -38 121 -85 24 -34 35 -41 91 -53 43 -10
87 -30 132 -60 50 -34 81 -47 121 -52 47 -6 62 -14 106 -56 34 -32 61 -49 77
-49 14 0 46 -3 71 -6 l47 -7 32 -99 33 -100 30 7 c16 3 41 7 55 8 14 1 31 8
38 15 7 6 21 12 30 12 10 0 26 9 36 21 10 13 25 19 36 16 11 -3 24 1 31 9 6 8
24 14 40 14 15 0 31 5 35 11 3 6 16 9 28 7 12 -3 28 2 36 10 11 12 2 52 -61
261 -60 203 -86 272 -146 392 -39 80 -75 157 -78 171 -12 45 47 313 136 621
55 190 88 276 113 292 12 7 65 18 118 24 161 18 261 68 317 157 29 45 29 45
15 107 -29 124 -94 228 -197 315 -83 72 -208 154 -292 194 -69 33 -71 33 -225
34 -99 0 -189 7 -250 18 -113 20 -357 29 -455 15z m125 -665 c0 -3 -51 -62
-113 -132 -137 -154 -324 -376 -514 -614 -78 -97 -147 -179 -153 -183 -52 -32
105 174 397 524 253 302 383 440 383 405z m50 -204 c0 -16 -645 -923 -660
-928 -9 -3 -11 1 -6 13 11 29 647 925 657 925 5 0 9 -4 9 -10z m20 -280 c0
-21 -322 -589 -425 -750 -41 -64 -65 -86 -65 -59 0 5 17 36 39 67 46 69 213
356 340 585 83 149 111 189 111 157z m-930 -208 c0 -5 -7 -17 -15 -28 -14 -18
-14 -17 -4 9 12 27 19 34 19 19z m47 -39 c-3 -10 -5 -4 -5 12 0 17 2 24 5 18
2 -7 2 -21 0 -30z m990 10 c-2 -5 -71 -169 -153 -365 -92 -222 -154 -358 -163
-358 -7 0 -11 6 -8 13 2 6 69 165 147 352 78 187 144 346 147 353 3 6 12 12
20 12 8 0 12 -3 10 -7z m153 -277 c0 -6 -149 -546 -156 -565 -3 -9 -8 -11 -14
-5 -6 6 17 109 66 284 42 151 78 278 81 283 4 7 23 10 23 3z"/>
<path d="M3265 2589 c-11 -16 -1 -19 13 -3 7 8 8 14 3 14 -5 0 -13 -5 -16 -11z"/>
<path d="M3220 2535 c-7 -9 -11 -17 -9 -20 3 -2 10 5 17 15 14 24 10 26 -8 5z"/>
<path d="M3305 2530 c-3 -5 -2 -10 4 -10 5 0 13 5 16 10 3 6 2 10 -4 10 -5 0
-13 -4 -16 -10z"/>
<path d="M3163 2475 c-9 -24 1 -27 15 -5 8 13 8 20 2 20 -6 0 -13 -7 -17 -15z"/>
<path d="M3257 2483 c-4 -3 -7 -11 -7 -17 0 -6 5 -5 12 2 18 18 31 15 23 -5
-5 -14 -3 -15 6 -6 6 6 8 16 5 22 -8 12 -29 15 -39 4z"/>
<path d="M3355 2479 c-10 -16 3 -23 18 -11 8 7 18 8 22 4 5 -4 5 -1 1 6 -9 15
-32 16 -41 1z"/>
<path d="M3015 2349 c-126 -151 -413 -396 -504 -429 -180 -67 -191 -72 -191
-91 0 -10 0 -22 -1 -26 0 -4 17 -13 37 -20 36 -13 50 -10 265 52 l226 66 104
-6 c70 -4 122 -2 158 7 l53 13 29 77 c15 42 34 105 41 139 12 61 27 78 83 103
6 3 -2 14 -17 26 -16 12 -28 27 -28 33 0 7 -9 18 -20 25 -11 7 -20 19 -20 26
0 8 -9 18 -20 21 -11 3 -23 17 -26 30 -3 13 -14 27 -24 30 -11 3 -22 15 -25
26 -4 10 -9 19 -13 19 -4 -1 -52 -55 -107 -121z"/>
<path d="M3305 2429 c-10 -16 3 -23 18 -11 8 7 18 8 22 4 5 -4 5 -1 1 6 -9 15
-32 16 -41 1z"/>
<path d="M3403 2425 c-3 -9 -3 -19 1 -22 3 -4 6 -1 6 5 0 7 7 12 16 12 8 0 12
5 9 10 -9 15 -25 12 -32 -5z"/>
<path d="M3207 2423 c-4 -3 -7 -11 -7 -17 0 -6 5 -5 12 2 18 18 31 15 23 -5
-5 -14 -3 -15 6 -6 6 6 8 16 5 22 -8 12 -29 15 -39 4z"/>
<path d="M3254 2365 c-4 -9 -4 -19 0 -22 3 -4 6 1 6 10 0 20 11 22 29 5 11
-11 13 -10 9 2 -7 21 -37 25 -44 5z"/>
<path d="M3355 2371 c-3 -6 -3 -16 1 -22 4 -8 10 -5 17 7 10 17 11 17 19 -1 8
-20 8 -20 5 0 -2 22 -31 32 -42 16z"/>
<path d="M3447 2373 c-4 -3 -7 -13 -7 -22 1 -14 2 -13 11 2 14 24 32 21 26 -4
-4 -16 -3 -19 5 -11 6 6 8 18 5 26 -7 16 -28 21 -40 9z"/>
<path d="M3307 2323 c-4 -3 -7 -15 -7 -27 0 -20 0 -20 15 0 8 10 15 22 15 27
0 9 -14 9 -23 0z"/>
<path d="M3405 2309 c-4 -6 -4 -13 -1 -16 3 -4 6 -1 6 5 0 6 8 13 18 15 15 4
15 5 0 6 -9 0 -20 -4 -23 -10z"/>
<path d="M3355 2260 c-3 -6 1 -7 9 -4 18 7 21 14 7 14 -6 0 -13 -4 -16 -10z"/>
<path d="M5180 886 c0 -8 4 -17 9 -20 5 -4 7 3 4 14 -6 23 -13 26 -13 6z"/>
<path d="M5110 860 c0 -11 4 -20 10 -20 5 0 6 8 3 17 -5 12 -2 15 10 10 9 -3
17 -2 17 3 0 6 -9 10 -20 10 -13 0 -20 -7 -20 -20z"/>
<path d="M5040 846 c0 -8 4 -18 10 -21 6 -4 7 1 3 11 -5 13 -3 16 10 11 9 -3
17 -2 17 3 0 6 -9 10 -20 10 -11 0 -20 -6 -20 -14z"/>
<path d="M4975 830 c-4 -7 -2 -17 4 -23 8 -8 11 -6 11 6 0 19 15 23 23 7 3 -6
4 -5 3 2 -3 17 -32 22 -41 8z"/>
<path d="M5157 814 c-10 -11 -9 -44 2 -44 5 0 7 10 3 23 -5 20 -4 21 13 7 15
-13 17 -13 14 -1 -6 17 -22 24 -32 15z"/>
<path d="M4913 795 c-3 -9 -3 -19 1 -22 3 -4 6 2 6 12 0 15 3 16 12 7 17 -17
33 -15 18 3 -16 19 -29 19 -37 0z"/>
<path d="M5084 785 c-4 -9 -1 -22 6 -28 10 -9 11 -9 6 1 -11 18 4 38 16 21 8
-12 9 -11 6 0 -6 22 -27 25 -34 6z"/>
<path d="M4840 766 c0 -8 4 -17 9 -20 5 -4 7 3 4 14 -6 23 -13 26 -13 6z"/>
<path d="M4865 770 c3 -5 8 -10 11 -10 2 0 4 5 4 10 0 6 -5 10 -11 10 -5 0 -7
-4 -4 -10z"/>
<path d="M5018 769 c-17 -9 -15 -39 3 -39 4 0 6 7 3 15 -7 18 7 20 25 3 11
-11 11 -9 2 10 -6 12 -13 22 -14 22 -1 0 -10 -5 -19 -11z"/>
<path d="M4795 750 c3 -5 8 -10 11 -10 2 0 4 5 4 10 0 6 -5 10 -11 10 -5 0 -7
-4 -4 -10z"/>
<path d="M4953 743 c-15 -6 -17 -29 -3 -38 6 -4 7 1 3 11 -5 13 -3 16 10 11 9
-3 17 -2 17 3 0 12 -13 18 -27 13z"/>
<path d="M5180 730 c0 -11 4 -20 10 -20 5 0 6 8 3 17 -5 12 -2 15 10 10 9 -3
17 -2 17 3 0 6 -9 10 -20 10 -13 0 -20 -7 -20 -20z"/>
<path d="M5110 711 c0 -11 4 -22 9 -25 5 -4 7 3 4 14 -6 23 7 26 26 8 10 -11
11 -10 6 5 -10 24 -45 22 -45 -2z"/>
<path d="M4870 712 c0 -4 9 -8 20 -8 11 0 20 4 20 8 0 4 -9 8 -20 8 -11 0 -20
-4 -20 -8z"/>
<path d="M5044 695 c-7 -17 3 -35 18 -35 7 0 6 6 -2 15 -11 14 -7 19 13 16 4
0 7 4 7 9 0 16 -30 12 -36 -5z"/>
<path d="M5354 685 c-13 -14 -29 -25 -34 -25 -13 0 -30 -34 -30 -59 0 -40 -17
-21 -37 40 -11 34 -23 56 -27 50 -4 -6 -18 -11 -31 -11 -13 0 -27 -4 -30 -10
-3 -5 -19 -10 -35 -10 -16 0 -32 -4 -35 -10 -3 -5 -17 -10 -29 -10 -13 0 -29
-7 -37 -16 -7 -9 -22 -14 -36 -11 -13 2 -28 -2 -34 -9 -6 -8 -23 -14 -36 -14
-21 0 -23 -2 -13 -15 15 -18 -6 -32 -175 -115 -87 -44 -161 -71 -270 -101 -82
-22 -154 -44 -158 -49 -5 -4 -7 -18 -5 -31 l3 -24 160 1 c135 0 182 5 299 28
149 31 148 31 383 0 128 -16 132 -16 165 3 30 17 33 24 36 74 2 41 -3 68 -22
111 l-25 57 45 7 c108 16 143 117 56 163 -19 10 -25 8 -48 -14z"/>
<path d="M4811 697 c2 -1 12 -9 22 -16 15 -12 17 -12 11 3 -3 9 -13 16 -22 16
-8 0 -13 -1 -11 -3z"/>
<path d="M4977 666 c-4 -9 -2 -18 3 -21 6 -4 10 1 10 11 0 14 2 15 17 3 14
-12 16 -12 11 1 -6 21 -34 24 -41 6z"/>
<path d="M4914 654 c-13 -5 -7 -44 6 -44 5 0 6 10 2 23 -5 20 -4 21 13 7 15
-13 17 -13 14 -1 -6 16 -18 22 -35 15z"/>
<path d="M4844 625 c-4 -9 -1 -22 6 -28 10 -9 11 -9 6 1 -11 18 4 38 16 21 8
-12 9 -11 6 0 -6 22 -27 25 -34 6z"/>
</g>
</svg>
